<mxfile host="app.diagrams.net" modified="2024-01-27T15:42:36.125Z" agent="Mozilla/5.0 (Windows NT 10.0; Win64; x64) AppleWebKit/537.36 (KHTML, like Gecko) Chrome/120.0.0.0 Safari/537.36" etag="3cUEMUfFbW-bhodAF1-t" version="22.1.22" type="github">
  <diagram name="第 1 页" id="7oRkRw5dxkfLAuNSu1dr">
    <mxGraphModel dx="1509" dy="785" grid="1" gridSize="10" guides="1" tooltips="1" connect="1" arrows="1" fold="1" page="1" pageScale="1" pageWidth="827" pageHeight="1169" math="0" shadow="0">
      <root>
        <mxCell id="0" />
        <mxCell id="1" parent="0" />
        <mxCell id="CX20Bqed3BP2MZZoevDr-4" value="" style="group;flipH=1;" vertex="1" connectable="0" parent="1">
          <mxGeometry x="120" y="320" width="240" height="200" as="geometry" />
        </mxCell>
        <mxCell id="hwmd0oWd8enfUJ7Ah6rV-24" value="自动化加工" style="rounded=0;whiteSpace=wrap;html=1;" parent="CX20Bqed3BP2MZZoevDr-4" vertex="1">
          <mxGeometry x="160" width="80" height="40" as="geometry" />
        </mxCell>
        <mxCell id="hwmd0oWd8enfUJ7Ah6rV-32" style="edgeStyle=orthogonalEdgeStyle;rounded=0;orthogonalLoop=1;jettySize=auto;html=1;entryX=0.5;entryY=1;entryDx=0;entryDy=0;" parent="CX20Bqed3BP2MZZoevDr-4" source="hwmd0oWd8enfUJ7Ah6rV-25" target="hwmd0oWd8enfUJ7Ah6rV-24" edge="1">
          <mxGeometry relative="1" as="geometry" />
        </mxCell>
        <mxCell id="hwmd0oWd8enfUJ7Ah6rV-25" value="控制加工" style="rounded=0;whiteSpace=wrap;html=1;" parent="CX20Bqed3BP2MZZoevDr-4" vertex="1">
          <mxGeometry x="160" y="160" width="80" height="40" as="geometry" />
        </mxCell>
        <mxCell id="hwmd0oWd8enfUJ7Ah6rV-35" value="习惯" style="rounded=0;whiteSpace=wrap;html=1;" parent="CX20Bqed3BP2MZZoevDr-4" vertex="1">
          <mxGeometry width="80" height="40" as="geometry" />
        </mxCell>
        <mxCell id="hwmd0oWd8enfUJ7Ah6rV-36" value="" style="edgeStyle=orthogonalEdgeStyle;rounded=0;orthogonalLoop=1;jettySize=auto;html=1;" parent="CX20Bqed3BP2MZZoevDr-4" source="hwmd0oWd8enfUJ7Ah6rV-24" target="hwmd0oWd8enfUJ7Ah6rV-35" edge="1">
          <mxGeometry relative="1" as="geometry" />
        </mxCell>
        <mxCell id="hwmd0oWd8enfUJ7Ah6rV-1" value="节能" style="rounded=0;whiteSpace=wrap;html=1;" parent="1" vertex="1">
          <mxGeometry x="600" y="160" width="80" height="40" as="geometry" />
        </mxCell>
        <mxCell id="hwmd0oWd8enfUJ7Ah6rV-4" value="" style="edgeStyle=orthogonalEdgeStyle;rounded=0;orthogonalLoop=1;jettySize=auto;html=1;" parent="1" source="hwmd0oWd8enfUJ7Ah6rV-3" target="hwmd0oWd8enfUJ7Ah6rV-1" edge="1">
          <mxGeometry relative="1" as="geometry" />
        </mxCell>
        <mxCell id="hwmd0oWd8enfUJ7Ah6rV-5" value="特性" style="edgeLabel;html=1;align=center;verticalAlign=middle;resizable=0;points=[];" parent="hwmd0oWd8enfUJ7Ah6rV-4" vertex="1" connectable="0">
          <mxGeometry x="-0.0154" relative="1" as="geometry">
            <mxPoint as="offset" />
          </mxGeometry>
        </mxCell>
        <mxCell id="hwmd0oWd8enfUJ7Ah6rV-3" value="大脑" style="rounded=0;whiteSpace=wrap;html=1;" parent="1" vertex="1">
          <mxGeometry x="600" y="280" width="80" height="40" as="geometry" />
        </mxCell>
        <mxCell id="hwmd0oWd8enfUJ7Ah6rV-7" value="预测模型" style="rounded=0;whiteSpace=wrap;html=1;" parent="1" vertex="1">
          <mxGeometry x="600" y="400" width="80" height="40" as="geometry" />
        </mxCell>
        <mxCell id="hwmd0oWd8enfUJ7Ah6rV-8" value="" style="edgeStyle=orthogonalEdgeStyle;rounded=0;orthogonalLoop=1;jettySize=auto;html=1;" parent="1" source="hwmd0oWd8enfUJ7Ah6rV-3" target="hwmd0oWd8enfUJ7Ah6rV-7" edge="1">
          <mxGeometry relative="1" as="geometry" />
        </mxCell>
        <mxCell id="hwmd0oWd8enfUJ7Ah6rV-9" value="构建" style="edgeLabel;html=1;align=center;verticalAlign=middle;resizable=0;points=[];" parent="hwmd0oWd8enfUJ7Ah6rV-8" vertex="1" connectable="0">
          <mxGeometry x="-0.08" relative="1" as="geometry">
            <mxPoint as="offset" />
          </mxGeometry>
        </mxCell>
        <mxCell id="CX20Bqed3BP2MZZoevDr-6" style="edgeStyle=orthogonalEdgeStyle;rounded=0;orthogonalLoop=1;jettySize=auto;html=1;entryX=1;entryY=0.5;entryDx=0;entryDy=0;fontFamily=Helvetica;fontSize=12;fontColor=default;" edge="1" parent="1" source="hwmd0oWd8enfUJ7Ah6rV-23" target="hwmd0oWd8enfUJ7Ah6rV-24">
          <mxGeometry relative="1" as="geometry" />
        </mxCell>
        <mxCell id="CX20Bqed3BP2MZZoevDr-7" style="edgeStyle=orthogonalEdgeStyle;rounded=0;orthogonalLoop=1;jettySize=auto;html=1;entryX=1;entryY=0.5;entryDx=0;entryDy=0;fontFamily=Helvetica;fontSize=12;fontColor=default;" edge="1" parent="1" source="hwmd0oWd8enfUJ7Ah6rV-23" target="hwmd0oWd8enfUJ7Ah6rV-25">
          <mxGeometry relative="1" as="geometry" />
        </mxCell>
        <mxCell id="hwmd0oWd8enfUJ7Ah6rV-23" value="行为处理模式" style="rounded=0;whiteSpace=wrap;html=1;" parent="1" vertex="1">
          <mxGeometry x="440" y="400" width="80" height="40" as="geometry" />
        </mxCell>
        <mxCell id="hwmd0oWd8enfUJ7Ah6rV-26" style="edgeStyle=orthogonalEdgeStyle;rounded=0;orthogonalLoop=1;jettySize=auto;html=1;entryX=1;entryY=0.5;entryDx=0;entryDy=0;" parent="1" source="hwmd0oWd8enfUJ7Ah6rV-7" target="hwmd0oWd8enfUJ7Ah6rV-23" edge="1">
          <mxGeometry relative="1" as="geometry" />
        </mxCell>
        <mxCell id="hwmd0oWd8enfUJ7Ah6rV-27" value="Text" style="edgeLabel;html=1;align=center;verticalAlign=middle;resizable=0;points=[];" parent="hwmd0oWd8enfUJ7Ah6rV-26" vertex="1" connectable="0">
          <mxGeometry x="-0.0462" relative="1" as="geometry">
            <mxPoint as="offset" />
          </mxGeometry>
        </mxCell>
        <mxCell id="hwmd0oWd8enfUJ7Ah6rV-28" value="影响" style="edgeLabel;html=1;align=center;verticalAlign=middle;resizable=0;points=[];" parent="hwmd0oWd8enfUJ7Ah6rV-26" vertex="1" connectable="0">
          <mxGeometry x="-0.0462" y="-1" relative="1" as="geometry">
            <mxPoint as="offset" />
          </mxGeometry>
        </mxCell>
        <mxCell id="hwmd0oWd8enfUJ7Ah6rV-40" value="认知过程" style="rounded=0;whiteSpace=wrap;html=1;" parent="1" vertex="1">
          <mxGeometry x="760" y="400" width="80" height="40" as="geometry" />
        </mxCell>
        <mxCell id="hwmd0oWd8enfUJ7Ah6rV-41" value="" style="edgeStyle=orthogonalEdgeStyle;rounded=0;orthogonalLoop=1;jettySize=auto;html=1;" parent="1" source="hwmd0oWd8enfUJ7Ah6rV-7" target="hwmd0oWd8enfUJ7Ah6rV-40" edge="1">
          <mxGeometry relative="1" as="geometry" />
        </mxCell>
        <mxCell id="hwmd0oWd8enfUJ7Ah6rV-42" value="影响" style="edgeLabel;html=1;align=center;verticalAlign=middle;resizable=0;points=[];" parent="hwmd0oWd8enfUJ7Ah6rV-41" vertex="1" connectable="0">
          <mxGeometry x="-0.075" relative="1" as="geometry">
            <mxPoint as="offset" />
          </mxGeometry>
        </mxCell>
        <mxCell id="hwmd0oWd8enfUJ7Ah6rV-43" value="有限理性假说" style="rounded=0;whiteSpace=wrap;html=1;container=0;" parent="1" vertex="1">
          <mxGeometry x="930" y="260" width="70" height="40" as="geometry" />
        </mxCell>
        <mxCell id="hwmd0oWd8enfUJ7Ah6rV-44" value="认知吝啬鬼" style="rounded=0;whiteSpace=wrap;html=1;container=0;" parent="1" vertex="1">
          <mxGeometry x="930" y="340" width="70" height="40" as="geometry" />
        </mxCell>
        <mxCell id="hwmd0oWd8enfUJ7Ah6rV-45" value="性价比最高" style="rounded=0;whiteSpace=wrap;html=1;container=0;" parent="1" vertex="1">
          <mxGeometry x="1150" y="260" width="70" height="40" as="geometry" />
        </mxCell>
        <mxCell id="hwmd0oWd8enfUJ7Ah6rV-54" style="edgeStyle=orthogonalEdgeStyle;rounded=0;orthogonalLoop=1;jettySize=auto;html=1;entryX=0;entryY=0.5;entryDx=0;entryDy=0;" parent="1" source="hwmd0oWd8enfUJ7Ah6rV-43" target="hwmd0oWd8enfUJ7Ah6rV-45" edge="1">
          <mxGeometry relative="1" as="geometry" />
        </mxCell>
        <mxCell id="hwmd0oWd8enfUJ7Ah6rV-46" value="刻板印象" style="rounded=0;whiteSpace=wrap;html=1;container=0;" parent="1" vertex="1">
          <mxGeometry x="1150" y="340" width="70" height="40" as="geometry" />
        </mxCell>
        <mxCell id="hwmd0oWd8enfUJ7Ah6rV-56" style="edgeStyle=orthogonalEdgeStyle;rounded=0;orthogonalLoop=1;jettySize=auto;html=1;" parent="1" source="hwmd0oWd8enfUJ7Ah6rV-44" target="hwmd0oWd8enfUJ7Ah6rV-46" edge="1">
          <mxGeometry relative="1" as="geometry" />
        </mxCell>
        <mxCell id="hwmd0oWd8enfUJ7Ah6rV-47" value="认知流畅性" style="rounded=0;whiteSpace=wrap;html=1;container=0;" parent="1" vertex="1">
          <mxGeometry x="930" y="420" width="70" height="40" as="geometry" />
        </mxCell>
        <mxCell id="hwmd0oWd8enfUJ7Ah6rV-49" value="单纯曝光效应" style="rounded=0;whiteSpace=wrap;html=1;container=0;" parent="1" vertex="1">
          <mxGeometry x="1150" y="420" width="70" height="40" as="geometry" />
        </mxCell>
        <mxCell id="hwmd0oWd8enfUJ7Ah6rV-58" style="edgeStyle=orthogonalEdgeStyle;rounded=0;orthogonalLoop=1;jettySize=auto;html=1;" parent="1" source="hwmd0oWd8enfUJ7Ah6rV-47" target="hwmd0oWd8enfUJ7Ah6rV-49" edge="1">
          <mxGeometry relative="1" as="geometry" />
        </mxCell>
        <mxCell id="hwmd0oWd8enfUJ7Ah6rV-50" value="谣言&amp;amp;金句" style="rounded=0;whiteSpace=wrap;html=1;container=0;" parent="1" vertex="1">
          <mxGeometry x="1150" y="490" width="70" height="40" as="geometry" />
        </mxCell>
        <mxCell id="hwmd0oWd8enfUJ7Ah6rV-59" style="edgeStyle=orthogonalEdgeStyle;rounded=0;orthogonalLoop=1;jettySize=auto;html=1;entryX=0;entryY=0.5;entryDx=0;entryDy=0;" parent="1" source="hwmd0oWd8enfUJ7Ah6rV-47" target="hwmd0oWd8enfUJ7Ah6rV-50" edge="1">
          <mxGeometry relative="1" as="geometry" />
        </mxCell>
        <mxCell id="hwmd0oWd8enfUJ7Ah6rV-51" value="双系统模型" style="rounded=0;whiteSpace=wrap;html=1;container=0;" parent="1" vertex="1">
          <mxGeometry x="930" y="570" width="70" height="40" as="geometry" />
        </mxCell>
        <mxCell id="hwmd0oWd8enfUJ7Ah6rV-52" value="启发式（直觉思考）" style="rounded=0;whiteSpace=wrap;html=1;container=0;" parent="1" vertex="1">
          <mxGeometry x="1150" y="570" width="70" height="40" as="geometry" />
        </mxCell>
        <mxCell id="hwmd0oWd8enfUJ7Ah6rV-61" style="edgeStyle=orthogonalEdgeStyle;rounded=0;orthogonalLoop=1;jettySize=auto;html=1;" parent="1" source="hwmd0oWd8enfUJ7Ah6rV-51" target="hwmd0oWd8enfUJ7Ah6rV-52" edge="1">
          <mxGeometry relative="1" as="geometry" />
        </mxCell>
        <mxCell id="hwmd0oWd8enfUJ7Ah6rV-66" value="可得性" style="rounded=0;whiteSpace=wrap;html=1;container=0;" parent="1" vertex="1">
          <mxGeometry x="1345" y="520" width="70" height="40" as="geometry" />
        </mxCell>
        <mxCell id="hwmd0oWd8enfUJ7Ah6rV-68" style="edgeStyle=orthogonalEdgeStyle;rounded=0;orthogonalLoop=1;jettySize=auto;html=1;entryX=0;entryY=0.5;entryDx=0;entryDy=0;" parent="1" source="hwmd0oWd8enfUJ7Ah6rV-52" target="hwmd0oWd8enfUJ7Ah6rV-66" edge="1">
          <mxGeometry relative="1" as="geometry" />
        </mxCell>
        <mxCell id="hwmd0oWd8enfUJ7Ah6rV-67" value="代表性" style="rounded=0;whiteSpace=wrap;html=1;container=0;" parent="1" vertex="1">
          <mxGeometry x="1345" y="620" width="70" height="40" as="geometry" />
        </mxCell>
        <mxCell id="hwmd0oWd8enfUJ7Ah6rV-69" style="edgeStyle=orthogonalEdgeStyle;rounded=0;orthogonalLoop=1;jettySize=auto;html=1;entryX=0;entryY=0.5;entryDx=0;entryDy=0;" parent="1" source="hwmd0oWd8enfUJ7Ah6rV-52" target="hwmd0oWd8enfUJ7Ah6rV-67" edge="1">
          <mxGeometry relative="1" as="geometry" />
        </mxCell>
        <mxCell id="hwmd0oWd8enfUJ7Ah6rV-71" value="激动策略者" style="rounded=0;whiteSpace=wrap;html=1;container=0;" parent="1" vertex="1">
          <mxGeometry x="930" y="680" width="70" height="40" as="geometry" />
        </mxCell>
      </root>
    </mxGraphModel>
  </diagram>
</mxfile>
